<?xml version="1.0" encoding="UTF-8"?>
<svg xmlns="http://www.w3.org/2000/svg" xmlns:xlink="http://www.w3.org/1999/xlink" version="1.1" id="Layer_1" x="0px" y="0px" width="7999.363px" height="1150.547px" viewBox="0 0 7999.363 1150.547" style="enable-background:new 0 0 7999.363 1150.547;" xml:space="preserve">
<path style="fill:#BA783E;" d="M837.215-1807.632c2.883,2.405,7.31,1.202,6,6c-12.545-1.569-25.729-2.914-38-6H837.215z"></path>
<g>
	<path style="fill:#B66F35;" d="M651.418,5.009C569.89-5.701,486.032,0.605,406.478,25.461   C231.77,80.047,88.735,220.648,31.342,394.436C16.528,439.296,5.261,485.547,1.05,532.684   c-4.391,49.152,6.284,94.359,8.313,142.739c3.501,1.575,5.748,5.743,13.347,5.938c4.022,0.103,6.797-1.938,7.653-1.938h37   c-0.597-19.262-6.118-37.905-7.983-57.017C31.198,333.617,259.239,70.667,548.281,57.341   c328.668-15.154,583.656,257.52,544.836,584.836c-1.453,12.252-14.867,88.15-21.719,92.281   c-30.201,1.975-425.673,2.014-468.045,0.975c-0.023-5.984,0.05-12.024,0.01-18.01c-0.684-103.69,28.509-206.86-63.054-279.945   c-74.363-59.357-171.827-68.887-263.557-77.747c-9.789,2.265-2.38,31.671-0.406,39.71c13.479,54.875,47.461,94.504,102.586,109.414   c25.838,6.988,54.294,5.377,78.393,15.607c23.33,9.903,37.205,29.563,60.028,38.952c-10.079-45.866-46.636-88.142-84.207-114.772   c-20.83-14.764-45.878-24.838-65.609-40.39c-0.839-0.662-5.796-3.897-3.151-4.85c13.674,2.293,27.248,5.531,40.506,9.495   c158.703,47.451,146.224,157.415,144.472,298.528c-0.099,7.979,0.07,16.031,0.01,24.01c-75.526,3.354-278.529,1.991-367.416,1.459   c-16.607-0.099-29.231-0.17-36.295-0.175c-10.002-0.007-118.982,3.517-120.291-1.284c16.407,60.172,44.565,119.409,82.035,168.948   c245.79-0.504,825.981-1.013,869.948-0.948c1.439,1.254-8.475,15.009-10.034,16.945c-8.346,10.372-35.275,38.519-47.436,40.564   c-126.154,0.898-638.714,1.977-768.51-1.509c-1.639,1.433,5.52,10.371,6.967,12.012c79.869,90.537,203.969,150.818,321.688,171.089   c103.455,17.815,206.607,5.259,304.37-31.077c11.406-4.239,70.694-28.191,73.984-36.036c-1.709-8.325-15.495-2.098-21.936-1.918   c-44.925,1.261-88.84-2.847-133.541,4.461c-98.395,16.085-177.018,25.855-275.542-4.542   c-29.675-9.156-77.508-29.039-103.841-45.159c-2.061-1.262-17.238-10.123-14.149-12.831c68.208,2.826,585.153,6.47,632.817-0.184   c18.617-2.599,55.917-45.469,69.119-60.881c13.231-15.446,24.954-32.444,37.683-48.316l34.361-56.619   c-62.633-0.053-859.608,7.584-934.961-0.04c-27.298-2.762-30.486-38.718-45.029-57.951c41.725,0.491,999.273,6.055,1007.434-0.608   c9.53-7.781,26.748-75.713,29.944-91.033c40.803-195.607-20.604-403.743-165.849-542.024   C886.168,73.307,771.312,20.758,651.418,5.009z"></path>
	<path style="fill:#B66F35;" d="M7973.263,362.337c-7.737,1.419-17.091,5.702-21.854,12.131   c-35.417,52.718-70.223,105.902-104.875,159.124c-4.703,7.223-22.019,40.559-28.452,41.672c-3.363-0.121-5.77-3.526-7.584-5.98   c-10.852-14.676-21.88-37.517-32.303-53.692c-31.237-48.48-62.963-96.797-95.755-144.245c-11.515-11.08-30.613-11.408-45.094-6.906   l160.12,245.88c7.214,49.242-3.14,105.166,1.905,154.095c2.081,20.177,15.875,14.65,31.709,14.728   c1.039-2.117,1.775-4.525,2.076-6.875c6.54-51.244-4.027-113.379,5.218-164.838c51.786-71.622,95.174-149.658,146.548-221.452   c4.141-5.787,8.351-12.705,14.443-16.557v-8C7990.403,363.978,7983.485,360.462,7973.263,362.337z"></path>
	<path style="fill:#B66F35;" d="M1789.363,365.423h-58v177h-233v-177h-55v414h54c0,0,1.601-170.019,2-185h232   c0.124,27.299,0,185,0,185h58C1789.405,734.123,1789.363,365.423,1789.363,365.423z"></path>
	<path style="fill:#B66F35;" d="M3937.281,365.754l2.062,353.669c-4.604-3.542-9.293-9.495-12.807-14.172   c-84.03-111.86-161.566-229.679-250.471-337.529c-7.717-4.519-20.603-5.742-29.259-3.849c-12.728,2.784-5.642,13.701-5.361,22.468   c3.129,97.593-1.477,197.172-0.083,295.083c0.463,32.546,1,98,1,98l34.102,0.102c0,0-3.543-331.721-0.112-358.092l253.064,342.936   c4.675,10.801,39.042,26.093,43.068,11.23l4.124-410.303L3937.281,365.754z"></path>
	<path style="fill:#B66F35;" d="M3172.49,367.296l-54.318-3.776l-3.897,1.81c-0.945,137.071,1.367,413.808,1.367,413.808   s281.534,0.95,281.721,0.285v-54l-226.01,0.01L3172.49,367.296z"></path>
	<path style="fill:#B66F35;" d="M5516.363,365.423h-35l0.083,261.083c2.705,153.724-235.373,170.462-255.837,19.67   c-9.635-70.994-2.613-174.5-0.267-247.774c0.317-9.907,2.11-24.927-2.979-32.98h-35l-0.083,251.082   c-13.349,183.615,257.681,232.5,319.046,70.882c22.718-59.834,9.177-208.022,10.954-279.046   C5517.603,395.471,5516.363,365.423,5516.363,365.423z"></path>
	<path style="fill:#B66F35;" d="M2884.298,665.456c-19.135-42.806-36.721-86.373-55.958-130.009   c-24.519-55.617-49.143-111.679-75.886-166.114c-6.122-7.304-15.487-6.247-24.181-5.984c-8.144,0.247-28.162,1.308-35.048,2.936   c-9.385,2.219-8.124,5.429-11.861,11.138c-9.922,15.159-18.625,37.676-26.353,54.647   c-47.52,104.369-154.601,347.412-154.601,347.412l63.504,0.36c0,0,24.536-69.322,40.449-92.42h228   c2.379,3.434,40.845,92.155,40.845,92.155l61.194-0.154c0,0-2.188-5.592-3.729-10.316   C2919.062,733.502,2899.718,699.953,2884.298,665.456z M2625.363,635.423l92-208c0.201,0.338,3.827-0.137,6.464,4.494   c22.693,39.857,44.399,105.066,63.536,149.506c7.771,18.048,15.393,36.328,24,54H2625.363z"></path>
	<path style="fill:#B66F35;" d="M6559.016,584.77c-28.834-64.546-56.505-140.988-89.898-202.101   c-13.14-24.047-33.923-31.172-52.612-7.104c-8.381,10.793-11.683,26.546-17.142,37.858c-8.667,17.959-15.804,35.745-24,54   c-11.849,26.392-24.037,53.394-36,80c-22.455,49.939-46.184,99.577-68,150c-10.807,24.977-22.514,49.637-31.961,75.223   c-0.983,9.698,21.788,9.544,27.869,5.668c13.723-8.746,28.385-54.849,36.377-71.606c2.783-5.836,12.273-27.449,17.1-28.9   c69.483,0.229,139.157-1.638,208.615-0.385c29.325,0.529,30.838-7.055,44.354,20.646c8.292,16.995,24.318,67.723,36.614,77.386   c9.065,7.125,22.196,2.92,33.037,3.958l-0.46-6.525C6617.923,708.834,6586.998,647.404,6559.016,584.77z M6523.363,647.423   c-48.195-2.863-97.268-1.81-146-2c-8.644-0.034-17.36,0.156-26,0c-3.331-0.06-6.669,0.065-10,0   c-2.661-0.052-5.342,0.059-7.993-0.01c-2.117-2.133,21.392-47.952,24.348-54.638c1.688-3.819,2.236-8.172,3.645-11.352   c17.246-38.929,35.662-77.43,52.352-116.648c6.238-14.657,12.589-38.349,19.192-50.803c6.541-12.336,14.561,3.982,18.21,10.697   c35.537,65.385,58.781,147.676,93.262,214.734l0.991,10.019C6538.089,647.123,6530.63,647.855,6523.363,647.423z"></path>
	<path style="fill:#B66F35;" d="M7097.984,745.865l-227.741-0.309l-1.88-380.133h-33v407c0,0.73,2.042,3.236,2.334,4.684   c87.969-0.552,176.575,2.835,264.395-1.954C7107.502,773.438,7108.132,745.583,7097.984,745.865z"></path>
	<path style="fill:#B66F35;" d="M7552.363,747.423h-227v-382h-36v409l3,3h256c0.631,0,9.349-3.194,10.149-3.843   C7564.91,768.39,7559.689,747.423,7552.363,747.423z"></path>
	<path style="fill:#B66F35;" d="M5949.363,635.423c-1.053-2.037-3.142-3.996-4-6c-1.35-3.154-3.766-6.051-0.087-9.09   c59.86-1.694,110.38-39.77,119.842-100.154c10.536-67.237-22.624-131.49-90.233-149.278c-19.674-5.176-33.975-4.362-53.522-5.477   c-46.286-2.641-92.351-2.316-138.917,0.083c-6.554,0.338-33.651-1.881-36.209,1.79c-1.178,51.683-1.398,103.512-0.968,155.222   c0.416,50.014,1.875,100.621,2.095,150.905c0.146,33.33-1.859,67.787-0.101,101.101c3.511,10.698,22.869,3.222,32.111,4.909   c-0.104-39.375,1.763-78.627,1.99-118.01c0.073-12.64-0.053-25.36,0-38h107c12.664,0,133.577,143.266,147.143,150.857   c16.263,9.101,53.316,15.104,30.875-12.875C6031.691,718.153,5985.308,678.25,5949.363,635.423z M5897.363,591.423l-118.009-1.99   l1.999-190.02c7.607-0.326,15.374,0.515,22.989-0.01c35.918-2.474,74.964-3.92,111.021-1.98   c75.136,4.044,121.763,28.573,113.968,112.968C6023.013,578.797,5954.518,593.167,5897.363,591.423z"></path>
	<path style="fill:#B66F35;" d="M4407.715,404.071c-10.724-22.036-19.325-53.49-50.367-39.664   c-13.71,6.106-15.969,21.435-21.985,33.016c-44.719,86.081-86.695,186.638-126.358,276.642   c-12.054,27.353-29.885,63.583-39.174,90.812c-2.387,6.996-5.681,11.345,2.627,14.443c25.873,9.646,32.369-9.953,41.258-28.544   c5.188-10.851,27.323-69.314,33.635-72.365l142.012-0.989c3.999,0.011,8.001-0.015,12,0c2.667,0.01,5.333-0.012,8,0   c27.3,0.125,54.747-0.917,82.019,0.981l43.957,94.043c6.137,8.817,38.164,16.264,35.646,0.49   C4516.367,651.095,4466.081,523.998,4407.715,404.071z M4476.402,647.424l-216.025-2.008c0,0,68.721-151.851,98.986-225.993   c1.222-2.993,7.852-17.031,11.972-13.995L4476.402,647.424z"></path>
	<path style="fill:#B66F35;" d="M2071.357,594.414l233.017,0.02l-0.001-52.024l-233.01,0.014v-122l243.126-1.874l0.001-53.253   l-300.848,0.406l-0.172,413.621l300.893,0.099v-54l-243.011,0.011C2071.233,722.117,2071.357,594.414,2071.357,594.414z"></path>
	<path style="fill:#B66F35;" d="M5007.49,366.296l-332.127-0.873v32l148.014,1.997l-0.014,380.003h35l1.107-379.901l144.49-2.502   C5012.288,395.456,5010.253,368.222,5007.49,366.296z"></path>
	<path style="fill:#B66F35;" d="M541.152,134.644c-1.875-2.691-2.825-3.924-6.418-2.985   c-50.692,58.363-90.979,150.723-46.211,223.604c13.022,21.199,42.299,46.976,63.02,60.981c3.545,2.396,20.608,14.367,23.81,11.169   l-14.202-97.761c-9.995-3.405-34.174,11.046-37.281-3.633l6.483-110.585c16.317,21.408,16.539,53.074,26.034,77.958   c9.281,12.269,27.328-8.844,32.554,1.461l6.427,132.556c5.055,1.572,3.434-2.154,4.713-3.185   c15.072-12.142,29.958-46.311,35.804-65.277c31.084-100.833-49.306-117.548-83.458-193.588   C548.843,157.375,544.961,140.11,541.152,134.644z"></path>
	<path style="fill:#B66F35;" d="M712.31,427.369c-42.11,38.249-70.959,90.624-82.936,146.043   c4.724,4.843,22.692-18.212,25.942-21.038c47.857-41.606,95.26-44.128,143.888-74.112c45.627-28.133,50.187-83.735,53.871-132.558   c-4.642-2.221-9.654-2.602-14.745-2.42c-61.92,2.206-145.042,15.513-187.018,65.086c-21.409,25.284-37.631,65.859-36.957,99.043   c24.776-27.112,35.499-59.511,64.063-83.937c17.55-15.007,49.767-33.012,72.42-37.589c3.176-0.642,7.412-2.191,6.559,2.558   C756.142,395.439,720.149,420.249,712.31,427.369z"></path>
</g>
</svg>
